<svg width="1922" height="1082" viewBox="0 0 1922 1082" fill="none" xmlns="http://www.w3.org/2000/svg">
<g clip-path="url(#clip0_1_10)">
<mask id="mask0_1_10" style="mask-type:luminance" maskUnits="userSpaceOnUse" x="0" y="0" width="1922" height="1082">
<path d="M1922 0H0V1082H1922V0Z" fill="white"/>
</mask>
<g mask="url(#mask0_1_10)">
<path d="M0 0V1082H1922V0H0ZM1048.28 373.45L1076.61 545.53C1078 553.97 1082.69 561.06 1089.13 565.68C1095.58 570.31 1103.78 572.47 1112.24 571.08C1129.14 568.29 1140.58 552.34 1137.79 535.45L1132 500.22C1131.84 499.24 1131.73 498.25 1131.68 497.29C1131.35 491.06 1133.2 485.13 1136.65 480.31C1140.63 474.76 1146.74 470.73 1154.01 469.53C1168.56 467.13 1182.3 476.98 1184.7 491.54L1213.22 664.75C1214.42 672.04 1212.55 679.11 1208.57 684.66C1204.59 690.21 1198.49 694.25 1191.2 695.45C1189.66 695.7 1188.12 695.82 1186.61 695.79C1173.85 695.7 1162.65 686.44 1160.5 673.42L1159.12 665.01C1157.73 656.57 1153.05 649.47 1146.6 644.84C1140.15 640.21 1131.94 638.06 1123.49 639.45C1106.59 642.22 1095.15 658.17 1097.94 675.08L1100.51 690.68C1103.6 709.47 1098.78 727.74 1088.5 742.07C1078.21 756.41 1062.46 766.83 1043.68 769.92C1006.1 776.11 970.62 750.66 964.43 713.08L941.87 576.06C940.45 567.41 935.65 560.16 929.05 555.42C922.44 550.68 914.04 548.46 905.38 549.88C888.07 552.73 876.36 569.06 879.21 586.37L880.4 593.58C883.49 612.36 878.67 630.63 868.39 644.97C858.1 659.31 842.35 669.73 823.57 672.82C785.99 679.01 750.51 653.56 744.33 615.98L713.47 428.54C707.29 390.97 732.73 355.5 770.31 349.3L770.32 349.31C807.89 343.12 843.37 368.56 849.56 406.15L857.39 453.73C858.81 462.38 863.61 469.65 870.21 474.38C876.81 479.11 885.22 481.32 893.87 479.9C911.17 477.06 922.89 460.72 920.04 443.41L912.21 395.83C910.82 387.44 911.02 379.16 912.57 371.28L912.75 370.4C914.74 360.97 918.69 352.14 924.21 344.44C934.5 330.1 950.25 319.68 969.05 316.59C975.51 315.53 981.91 315.4 988.1 316.11L989.03 316.22C1018.48 320.01 1043.21 342.66 1048.28 373.45Z" fill="white"/>
</g>
</g>
<defs>
<clipPath id="clip0_1_10">
<rect width="1922" height="1082" fill="white"/>
</clipPath>
</defs>
</svg>
